<svg xmlns="http://www.w3.org/2000/svg" viewBox="0 0 111.5 112.25"><defs><style>.cls-1{fill:#61dbfb;}.cls-2{fill:#fff;}</style></defs><g id="Layer_2" data-name="Layer 2"><g id="Layer_1-2" data-name="Layer 1"><rect class="cls-1" x="20.75" y="21.13" width="70" height="70" rx="35"/><path class="cls-2" d="M49.2,10.21h-14A10.21,10.21,0,0,1,45.43,0H76a10.21,10.21,0,0,1-10.2,10.21H62.07V45.5H49.2Z"/><path class="cls-2" d="M10.21,62.45v14h0A10.21,10.21,0,0,1,0,66.22V35.67H0a10.2,10.2,0,0,1,10.21,10.2v3.71H45.5V62.45Z"/><path class="cls-2" d="M101.29,49.64v-14h0a10.2,10.2,0,0,1,10.21,10.2V76.42h0a10.21,10.21,0,0,1-10.21-10.2V62.51H66V49.64Z"/><path class="cls-2" d="M62,102.05H76a10.2,10.2,0,0,1-10.2,10.2H35.23a10.2,10.2,0,0,1,10.2-10.2h3.71V66.75H62Z"/><rect class="cls-2" x="49.1" y="49.54" width="13" height="13"/></g></g></svg>